<svg xmlns="http://www.w3.org/2000/svg" viewBox="0 0 419.1 110.19"><defs><style>.b6185962-ba7f-4017-8115-5bfa4c45095d{fill:none;stroke:#2f2f41;stroke-miterlimit:10;stroke-width:8px;}.aaa12c91-188a-4889-bb6a-7b83083b403c{fill:#68668f;}.ecd92bc6-c321-4162-83b9-1ba9afbb51d3{fill:#fff;}</style></defs><g id="a7006803-a0f8-48ac-bbed-13b55e87724a" data-name="Capa 3"><rect class="b6185962-ba7f-4017-8115-5bfa4c45095d" x="4" y="4" width="411.1" height="102.19"/></g><g id="a8e82f52-0faa-4ff8-9b64-9cddea4b1b5f" data-name="Capa 2"><path class="aaa12c91-188a-4889-bb6a-7b83083b403c" d="M135.94,363.93V313.52h17.57q13.44,0,20.15,6.13t6.71,18.44q0,11.78-7.34,18.81t-19.55,7Zm11-41.45V355h5.73q7.55,0,11.84-4.48t4.29-12.29q0-7.38-4.22-11.57t-11.91-4.18Z" transform="translate(-73.93 -285.81)"/><path class="aaa12c91-188a-4889-bb6a-7b83083b403c" d="M244.56,363.93H232.07l-6.82-12.55a18.12,18.12,0,0,0-3.3-4.61,6.19,6.19,0,0,0-3.8-1.72h-3.23v18.88H204V313.52H221.7q9,0,13.61,3.55c3.05,2.36,4.57,5.93,4.57,10.68a13.36,13.36,0,0,1-2.94,8.67,17.23,17.23,0,0,1-8,5.4V342a9.46,9.46,0,0,1,4.1,2.86,25.53,25.53,0,0,1,3.25,4.59Zm-29.64-42.12v14.87h5.13a8.16,8.16,0,0,0,6-2.25,7.55,7.55,0,0,0,2.26-5.59,6.62,6.62,0,0,0-2-5.25c-1.34-1.19-3.35-1.78-6.05-1.78Z" transform="translate(-73.93 -285.81)"/><path class="aaa12c91-188a-4889-bb6a-7b83083b403c" d="M260.19,363.93l18.38-50.41h13l18,50.41h-12l-3.51-10.72H275.55l-3.48,10.72ZM278,344.59h13.5l-5.69-17.82c-.24-.66-.42-1.24-.55-1.74a16.65,16.65,0,0,1-.33-1.92h-.28c-.12.68-.24,1.29-.37,1.83s-.29,1.1-.47,1.69Z" transform="translate(-73.93 -285.81)"/><path class="aaa12c91-188a-4889-bb6a-7b83083b403c" d="M367.57,361.29a36.19,36.19,0,0,1-7.73,2.69,37.92,37.92,0,0,1-8.12.83q-11.78,0-18.51-6.61t-6.73-18.85q0-11.52,7.36-19.1t19.39-7.58a39.63,39.63,0,0,1,7.33.62,36.42,36.42,0,0,1,6.63,1.95l-3.38,8.89a25.33,25.33,0,0,0-5-1.51,29,29,0,0,0-5.26-.46,15.23,15.23,0,0,0-10.95,4.43c-3.06,3-4.59,7-4.59,12s1.34,9.23,4,12.16,6.36,4.4,11,4.4a21.9,21.9,0,0,0,4.76-.64,25.41,25.41,0,0,0,5.65-2.07Z" transform="translate(-73.93 -285.81)"/><path class="aaa12c91-188a-4889-bb6a-7b83083b403c" d="M409.33,364.81q-10.8,0-17.6-7.05t-6.8-18.37q0-12,6.91-19.34t18.33-7.38q10.75,0,17.4,7.07t6.65,18.63q0,11.92-6.89,19.18T409.33,364.81Zm.21-9.53a11.73,11.73,0,0,0,9.59-4.29q3.53-4.29,3.52-12,0-8-3.43-12.41a11.24,11.24,0,0,0-9.4-4.43,11.74,11.74,0,0,0-9.7,4.56q-3.63,4.54-3.63,12.07t3.61,12.06A11.59,11.59,0,0,0,409.54,355.28Z" transform="translate(-73.93 -285.81)"/><path class="aaa12c91-188a-4889-bb6a-7b83083b403c" d="M467,371.41H450.64v-6.89h7.45V316.43h-7.45v-6.9H467Z" transform="translate(-73.93 -285.81)"/><path class="aaa12c91-188a-4889-bb6a-7b83083b403c" d="M118.52,371.41H102.24V309.53h16.28v6.9h-7.38v48.09h7.38Z" transform="translate(-73.93 -285.81)"/></g><g id="ae7562e5-2de9-4f02-b2cb-bfab650bebfa" data-name="Capa 4"><polygon class="ecd92bc6-c321-4162-83b9-1ba9afbb51d3" points="194.42 55.66 194.03 56.77 205.03 55.66 205.39 54.55 194.42 55.66"/><polygon class="ecd92bc6-c321-4162-83b9-1ba9afbb51d3" points="215.88 53.62 216.2 54.59 226.9 53.53 226.53 52.55 215.88 53.62"/><polygon class="ecd92bc6-c321-4162-83b9-1ba9afbb51d3" points="252.77 49.82 252.66 50.88 264.32 49.56 264.53 48.52 252.77 49.82"/><polygon class="ecd92bc6-c321-4162-83b9-1ba9afbb51d3" points="312.84 42.46 312.48 43.55 325.7 41.55 326.62 40.39 312.84 42.46"/><path class="ecd92bc6-c321-4162-83b9-1ba9afbb51d3" d="M416.93,324.33q3.31-.63,6.76-1.41c1.87-.42,3.71-.85,5.5-1.3l-.73-.88q-3,.74-6.12,1.44c-2.25.5-4.45,1-6.62,1.38Z" transform="translate(-73.93 -285.81)"/><path class="ecd92bc6-c321-4162-83b9-1ba9afbb51d3" d="M73.93,289.32v1q40.77,1.08,81.55,2.07,29.52.72,59.05,1.4h17q-37.71-1.57-76.29-2.69Q114.11,289.91,73.93,289.32Z" transform="translate(-73.93 -285.81)"/><path class="ecd92bc6-c321-4162-83b9-1ba9afbb51d3" d="M107.8,285.87c16,.55,40.54,1.38,70.9,2.39,23.53.78,31.07,1,41.88,1.45,18.09.72,44.25,1.94,76.45,4.08H312.9q-49.44-3.14-100.51-5.36-36.27-1.57-71.75-2.59Z" transform="translate(-73.93 -285.81)"/><polygon class="ecd92bc6-c321-4162-83b9-1ba9afbb51d3" points="186.61 77.16 186.26 78.12 198.61 76.68 198.96 75.6 186.61 77.16"/><polygon class="ecd92bc6-c321-4162-83b9-1ba9afbb51d3" points="233.56 72.16 233.19 71.16 221.87 72.69 222.19 73.66 233.56 72.16"/><polygon class="ecd92bc6-c321-4162-83b9-1ba9afbb51d3" points="269.32 66.13 270.48 67 256.52 69.03 255.94 68.06 269.32 66.13"/><polygon class="ecd92bc6-c321-4162-83b9-1ba9afbb51d3" points="311.5 59.52 311.72 60.54 323.11 58.51 322.92 57.47 311.5 59.52"/><path class="ecd92bc6-c321-4162-83b9-1ba9afbb51d3" d="M422.64,338.26v1c2.32-.41,4.74-.91,7.25-1.52,1.47-.35,2.9-.72,4.28-1.11l-.05-1c-1.06.29-2.14.58-3.24.85C428,337.2,425.29,337.78,422.64,338.26Z" transform="translate(-73.93 -285.81)"/><path class="ecd92bc6-c321-4162-83b9-1ba9afbb51d3" d="M458.08,329.7v-1.09q2-.76,4.31-1.84c1.69-.8,3.22-1.64,4.59-2.46v1.16c-.85.55-1.78,1.1-2.79,1.64A37.45,37.45,0,0,1,458.08,329.7Z" transform="translate(-73.93 -285.81)"/><path class="ecd92bc6-c321-4162-83b9-1ba9afbb51d3" d="M450.64,309.63v-.1l3.85,0c1.24.29,2.54.64,3.87,1.06a55.79,55.79,0,0,1,8.63,3.5v1.16c-1.71-.86-3.6-1.73-5.66-2.53A64,64,0,0,0,450.64,309.63Z" transform="translate(-73.93 -285.81)"/></g></svg>